<svg clip-rule="evenodd" fill-rule="evenodd" stroke-linejoin="round" stroke-miterlimit="2" viewBox="0 0 2084 500" xmlns="http://www.w3.org/2000/svg"><g fill-rule="nonzero"><path d="m158.333 316.667h133.333v133.333h-133.333z" fill="#f66"/><path d="m291.667 50h133.333v133.333h-133.333z" fill="#f66"/><path d="m291.667 183.333h133.333v133.333h-133.333z" fill="#fff500"/><path d="m420.833 50h133.333v133.333h-133.333z" fill="#fff500"/><g fill="#f66"><path d="m287.5 316.667h133.333v133.333h-133.333z"/><path d="m158.333 183.333h133.333v133.333h-133.333z"/><path d="m420.833 183.333h133.333v133.333h-133.333z"/></g><path d="m648.433 341.667v-129.6c0-10.846 2.667-20.534 8-29.067 5.334-8.713 12.621-15.554 21.867-20.533 9.421-4.979 20.087-7.467 32-7.467h73.867v45.067h-65.067c-3.733 0-6.846 1.246-9.333 3.733-2.488 2.487-3.734 5.6-3.734 9.333v20.534h69.6v44h-69.6v64zm197.95 54.133v-54.667c-9.245-2.845-17.333-7.021-24.266-12.533-6.755-5.687-12-12.354-15.734-20-3.554-7.821-5.333-16.354-5.333-25.6v-79.467h50.933v75.734c0 3.379.8 6.579 2.4 9.6 1.6 3.02 3.913 5.512 6.934 7.466 3.02 1.954 6.579 2.934 10.666 2.934 4.267 0 7.821-.98 10.667-2.934 3.021-1.954 5.246-4.446 6.667-7.466 1.6-3.021 2.4-6.221 2.4-9.6v-75.734h51.2v79.467c0 9.246-1.78 17.867-5.334 25.867-3.554 7.821-8.712 14.579-15.466 20.266-6.755 5.513-14.934 9.6-24.534 12.267v54.4zm118.98-54.133v-95.2c0-13.155 3.82-23.555 11.466-31.2 7.642-7.646 18.309-11.467 32-11.467h44.267v38.667h-26.4c-3.025 0-5.513.979-7.467 2.933-1.779 1.779-2.666 4.179-2.666 7.2v89.067zm160.741 3.466c-11.554 0-21.954-2.933-31.2-8.8-9.246-5.866-16.533-13.954-21.866-24.266-5.334-10.488-8-22.667-8-36.534 0-14.754 3.287-27.733 9.866-38.933 6.579-11.379 15.646-20.267 27.2-26.667 11.734-6.4 25.334-9.6 40.8-9.6 15.113 0 28.267 3.113 39.467 9.334 11.2 6.045 19.912 14.579 26.133 25.6 6.4 10.845 9.6 23.466 9.6 37.866v68.534h-48.533v-20.534h-1.6c-2.313 4.8-5.421 9.067-9.334 12.8-3.733 3.554-8.266 6.313-13.6 8.267-5.333 1.954-11.645 2.933-18.933 2.933zm15.734-44.8c4.8 0 8.979-1.154 12.533-3.466 3.733-2.313 6.579-5.513 8.533-9.6 2.134-4.267 3.2-9.067 3.2-14.4 0-5.154-1.066-9.688-3.2-13.6-1.954-3.913-4.8-7.021-8.533-9.334-3.554-2.312-7.733-3.466-12.533-3.466-4.621 0-8.801 1.154-12.534 3.466-3.733 2.313-6.666 5.421-8.8 9.334-1.954 3.912-2.933 8.446-2.933 13.6 0 5.333.979 10.133 2.933 14.4 2.134 4.087 5.067 7.287 8.8 9.6 3.734 2.312 7.913 3.466 12.534 3.466zm232.024 41.334c-12.624 0-23.645-2.667-33.066-8-9.425-5.334-16.713-12.355-21.867-21.067-5.158-8.887-7.733-18.667-7.733-29.333v-128.267h57.596v128.8c0 3.379 1.158 6.4 3.471 9.067 2.487 2.487 5.508 3.733 9.066 3.733h49.333v45.067zm130.63 3.466c-11.559 0-21.959-2.933-31.2-8.8-9.246-5.866-16.534-13.954-21.867-24.266-5.333-10.488-8-22.667-8-36.534 0-14.754 3.287-27.733 9.867-38.933 6.575-11.379 15.641-20.267 27.2-26.667 11.733-6.4 25.333-9.6 40.8-9.6 15.108 0 28.266 3.113 39.466 9.334 11.2 6.045 19.909 14.579 26.134 25.6 6.4 10.845 9.6 23.466 9.6 37.866v68.534h-48.534v-20.534h-1.6c-2.312 4.8-5.425 9.067-9.333 12.8-3.733 3.554-8.267 6.313-13.6 8.267s-11.646 2.933-18.933 2.933zm15.733-44.8c4.8 0 8.975-1.154 12.533-3.466 3.734-2.313 6.575-5.513 8.534-9.6 2.133-4.267 3.2-9.067 3.2-14.4 0-5.154-1.067-9.688-3.2-13.6-1.959-3.913-4.8-7.021-8.534-9.334-3.558-2.312-7.733-3.466-12.533-3.466-4.625 0-8.8 1.154-12.533 3.466-3.734 2.313-6.667 5.421-8.8 9.334-1.959 3.912-2.934 8.446-2.934 13.6 0 5.333.975 10.133 2.934 14.4 2.133 4.087 5.066 7.287 8.8 9.6 3.733 2.312 7.908 3.466 12.533 3.466zm175.317 44.8c-15.113 0-28.446-3.112-40-9.333-11.559-6.221-20.534-14.933-26.934-26.133s-9.6-24.355-9.6-39.467v-123.2h51.2v67.467h1.6c2.667-3.2 5.775-5.867 9.334-8 3.554-2.134 7.466-3.646 11.733-4.534 4.267-1.066 8.8-1.6 13.6-1.6 12.267 0 23.375 2.934 33.333 8.8 9.955 5.867 17.775 14.046 23.467 24.534 5.867 10.487 8.8 22.845 8.8 37.066 0 11.021-1.867 21.067-5.6 30.134-3.558 9.066-8.712 16.979-15.467 23.733-6.758 6.579-14.845 11.646-24.266 15.2-9.246 3.554-19.646 5.333-31.2 5.333zm0-44.8c4.8 0 8.975-1.154 12.533-3.466 3.733-2.313 6.575-5.513 8.533-9.6 2.134-4.267 3.2-9.067 3.2-14.4 0-5.154-1.066-9.688-3.2-13.6-1.958-3.913-4.8-7.021-8.533-9.334-3.558-2.312-7.733-3.466-12.533-3.466-4.625 0-8.8 1.154-12.534 3.466-3.733 2.313-6.666 5.421-8.8 9.334-1.958 3.912-2.933 8.446-2.933 13.6 0 5.333.975 10.133 2.933 14.4 2.134 4.087 5.067 7.287 8.8 9.6 3.734 2.312 7.909 3.466 12.534 3.466zm96.654 41.334v-36.267h64.533c1.421 0 2.579-.267 3.467-.8.887-.713 1.6-1.513 2.133-2.4.534-1.067.8-2.133.8-3.2s-.266-2.046-.8-2.933c-.533-1.067-1.246-1.867-2.133-2.4-.888-.534-2.046-.8-3.467-.8h-20.8c-9.066 0-17.333-1.513-24.8-4.534-7.466-3.2-13.421-8.087-17.866-14.666-4.267-6.755-6.4-15.38-6.4-25.867 0-8.179 1.954-15.554 5.866-22.133 4.088-6.755 9.6-12.088 16.534-16 6.933-4.088 14.579-6.134 22.933-6.134h70.133v36.267h-58.133c-1.779 0-3.288.621-4.533 1.867-1.067 1.245-1.601 2.666-1.601 4.266.001 1.6.534 3.021 1.601 4.267 1.245 1.246 2.754 1.867 4.533 1.867h19.2c10.312 0 19.2 1.6 26.667 4.8 7.645 3.02 13.512 7.82 17.6 14.4 4.087 6.579 6.133 15.112 6.133 25.6 0 8.179-2.133 15.645-6.4 22.4-4.088 6.754-9.6 12.179-16.533 16.266-6.934 4.088-14.755 6.134-23.467 6.134z" fill="#555"/></g></svg>