<svg xmlns="http://www.w3.org/2000/svg" version="1.1" xmlns:xlink="http://www.w3.org/1999/xlink" xmlns:svgjs="http://svgjs.dev/svgjs" viewBox="0 0 1422 800"><defs><filter id="llleaves-blur-2" x="-100%" y="-100%" width="400%" height="400%"><feGaussianBlur in="SourceGraphic" stdDeviation="2"></feGaussianBlur></filter><filter id="llleaves-blur-3" x="-100%" y="-100%" width="400%" height="400%"><feGaussianBlur in="SourceGraphic" stdDeviation="4"></feGaussianBlur></filter><filter id="llleaves-blur-4" x="-100%" y="-100%" width="400%" height="400%"><feGaussianBlur in="SourceGraphic" stdDeviation="12"></feGaussianBlur></filter></defs><g fill="hsl(249, 62%, 59%)"><path d="M796 415H846C874 415 896 437 896 465H846C818 465 796 443 796 415Z " transform="matrix(-0.008926197784998074,-0.5113815286111099,0.5113815286111099,-0.008926197784998074,628.54369073722,876.5563002303983)" opacity="0.79"></path><path d="M1040 321H1090C1118 321 1140 343 1140 371H1090C1062 371 1040 349 1040 321Z " transform="matrix(-0.239653421923296,-0.398850272982033,0.398850272982033,-0.239653421923296,1213.2200354446093,863.6668815358764)" opacity="0.71"></path><path d="M1278 548H1328C1356 548 1378 570 1378 598H1328C1300 598 1278 576 1278 548Z " transform="matrix(-0.34460602815293984,-0.25967926820448517,0.25967926820448517,-0.34460602815293984,1636.8405847059341,1115.313322307191)" opacity="0.66"></path><path d="M1299 224H1349C1377 224 1399 246 1399 274H1349C1321 274 1299 252 1299 224Z " transform="matrix(-0.35099635629480497,-0.24577029456176339,0.24577029456176339,-0.35099635629480497,1761.2972812958128,667.9422200812253)" opacity="0.66"></path><path d="M177 27H227C255 27 277 49 277 77H227C199 77 177 55 177 27Z " transform="matrix(-0.2002561658721889,-0.42945073358761854,0.42945073358761854,-0.2002561658721889,250.1267115064307,159.89863714974322)" opacity="0.73"></path><path d="M143 485H193C221 485 243 507 243 535H193C165 535 143 513 143 485Z " transform="matrix(-0.2688431466211856,-0.3700308464519806,0.3700308464519806,-0.2688431466211856,56.17099560737873,718.5259581420369)" opacity="0.70"></path><path d="M896 42H946C974 42 996 64 996 92H946C918 92 896 70 896 42Z " transform="matrix(0.10090927462861049,-0.5191332140392706,0.5191332140392706,0.10090927462861049,815.7579008607033,551.339099081033)" opacity="0.81"></path><path d="M1100 584H1150C1178 584 1200 606 1200 634H1150C1122 634 1100 612 1100 584Z " transform="matrix(-0.28020229485098547,-0.3586425826158169,0.3586425826158169,-0.28020229485098547,1253.819306265601,1192.0821675724396)" opacity="0.70"></path><path d="M611 37H661C689 37 711 59 711 87H661C633 87 611 65 611 37Z " transform="matrix(0.26051675033050287,-0.4899607470126,0.4899607470126,0.26051675033050287,458.42086171675635,369.71201525483747)" opacity="0.85"></path><path d="M315 32H365C393 32 415 54 415 82H365C337 82 315 60 315 32Z " transform="matrix(0.07305946047980533,-0.5198450730317324,0.5198450730317324,0.07305946047980533,308.70212776206233,242.57906240923347)" opacity="0.81"></path><path d="M538 252H588C616 252 638 274 638 302H588C560 302 538 280 538 252Z " transform="matrix(0.17648173969054087,-0.5125401881204225,0.5125401881204225,0.17648173969054087,342.25510495260494,529.4881887205286)" opacity="0.83"></path><path d="M1307 696H1357C1385 696 1407 718 1407 746H1357C1329 746 1307 724 1307 696Z " transform="matrix(-0.35099635629480497,-0.24577029456176339,0.24577029456176339,-0.35099635629480497,1656.1016731130192,1307.5786626088675)" opacity="0.66"></path><path d="M419 479H469C497 479 519 501 519 529H469C441 529 419 507 419 479Z " transform="matrix(0.13842214887176565,-0.5165984924822916,0.5165984924822916,0.13842214887176565,143.71437196806698,676.5199299428249)" opacity="0.82"></path><path d="M12 269H62C90 269 112 291 112 319H62C34 319 12 297 12 269Z " transform="matrix(-0.3816133609342017,-0.13140001776992127,0.13140001776992127,-0.3816133609342017,47.028423153563644,414.34112921639047)" opacity="0.62"></path><path d="M15 502H65C93 502 115 524 115 552H65C37 552 15 530 15 502Z " transform="matrix(-0.3816133609342017,-0.13140001776992127,0.13140001776992127,-0.3816133609342017,20.557059095974587,736.6512423673692)" opacity="0.62"></path><path d="M610 724H660C688 724 710 746 710 774H660C632 774 610 752 610 724Z " transform="matrix(0.1481816976841951,-0.5167709928167286,0.5167709928167286,0.1481816976841951,175.1386059087016,979.0807636935787)" opacity="0.83"></path><path d="M559 472H609C637 472 659 494 659 522H609C581 522 559 500 559 472Z " transform="matrix(0.17626970397683964,-0.5119243916942355,0.5119243916942355,0.17626970397683964,247.22532760606958,721.1559116653002)" opacity="0.83"></path><path d="M478 588H528C556 588 578 610 578 638H528C500 638 478 616 478 588Z " transform="matrix(0.167030926847776,-0.5140683337585247,0.5140683337585247,0.167030926847776,124.68378203039867,782.0381220668144)" opacity="0.83"></path><path d="M24 723H74C102 723 124 745 124 773H74C46 773 24 751 24 723Z " transform="matrix(-0.3816133609342017,-0.13140001776992127,0.13140001776992127,-0.3816133609342017,3.9521754172298103,1043.170395293757)" opacity="0.62"></path><path d="M393 251H443C471 251 493 273 493 301H443C415 301 393 279 393 251Z " transform="matrix(0.11026076781862013,-0.5187361281736953,0.5187361281736953,0.11026076781862013,250.98330848041138,475.36813286300793)" opacity="0.82"></path><path d="M356 371H406C434 371 456 393 456 421H406C378 421 356 399 356 371Z " transform="matrix(0.07302570105792656,-0.519604862263451,0.519604862263451,0.07302570105792656,170.5880399141552,578.0413964600223)" opacity="0.81"></path><path d="M138 232H188C216 232 238 254 238 282H188C160 282 138 260 138 232Z " transform="matrix(-0.2688431466211856,-0.3700308464519806,0.3700308464519806,-0.2688431466211856,143.4445840266239,395.65848781461705)" opacity="0.70"></path><path d="M313 720H363C391 720 413 742 413 770H363C335 770 313 748 313 720Z " transform="matrix(0.03613315829676156,-0.5167282376029293,0.5167282376029293,0.03613315829676156,-35.07887347590673,905.653147318776)" opacity="0.80"></path><path d="M955 452H1005C1033 452 1055 474 1055 502H1005C977 502 955 480 955 452Z " transform="matrix(-0.16493132983898204,-0.4531451044932246,0.4531451044932246,-0.16493132983898204,954.6057716449088,1011.0830743488851)" opacity="0.74"></path><path d="M749 44H799C827 44 849 66 849 94H799C771 94 749 72 749 44Z " transform="matrix(0.2048506839077997,-0.5070232346535323,0.5070232346535323,0.2048506839077997,600.3397003665743,459.97686729853416)" opacity="0.84"></path><path d="M22 30H72C100 30 122 52 122 80H72C44 80 22 58 22 30Z " transform="matrix(-0.3804726872987497,-0.13848073312801745,0.13848073312801745,-0.3804726872987497,91.77759316346902,85.89661058664849)" opacity="0.62"></path><path d="M1123 458H1173C1201 458 1223 480 1223 508H1173C1145 508 1123 486 1123 458Z " transform="matrix(-0.295519988594884,-0.3399568585818673,0.3399568585818673,-0.295519988594884,1355.445783926757,1024.5055496078594)" opacity="0.69"></path><path d="M751 283H801C829 283 851 305 851 333H801C773 333 751 311 751 283Z " transform="matrix(0.027051254692532656,-0.5161686883627636,0.5161686883627636,0.027051254692532656,620.3519889755502,713.1193329332737)" opacity="0.79"></path><path d="M1309 60H1359C1387 60 1409 82 1409 110H1359C1331 110 1309 88 1309 60Z " transform="matrix(-0.19349037776761127,-0.4345865038626738,0.4345865038626738,-0.19349037776761127,1585.0135705578564,692.0497408596207)" opacity="0.73"></path><path d="M-2 615H48C76 615 98 637 98 665H48C20 665 -2 643 -2 615Z " transform="matrix(-0.3845618646821822,-0.060908615707847426,0.060908615707847426,-0.3845618646821822,27.477455451722392,889.0432069505732)" filter="url(#llleaves-blur-2)" opacity="0.60"></path><path d="M1011 714H1061C1089 714 1111 736 1111 764H1061C1033 764 1011 742 1011 714Z " transform="matrix(-0.21372546791069522,-0.41945984861553426,0.41945984861553426,-0.21372546791069522,977.7818933263678,1341.9900201670857)" opacity="0.72"></path><path d="M689 506H739C767 506 789 528 789 556H739C711 556 689 534 689 506Z " transform="matrix(0.11038118716493057,-0.5193026566561111,0.5193026566561111,0.11038118716493057,381.6785920007213,856.1522528842879)" opacity="0.82"></path><path d="M124 352H174C202 352 224 374 224 402H174C146 402 124 380 124 352Z " transform="matrix(-0.30886146564571926,-0.31983541043792657,0.31983541043792657,-0.30886146564571926,107.16394528725684,549.0921339646354)" opacity="0.68"></path><path d="M464 715H514C542 715 564 737 564 765H514C486 765 464 743 464 715Z " transform="matrix(0.167030926847776,-0.5140683337585247,0.5140683337585247,0.167030926847776,47.73553661893493,880.6282376845274)" opacity="0.83"></path><path d="M824 167H874C902 167 924 189 924 217H874C846 217 824 195 824 167Z " transform="matrix(-0.035282962475890745,-0.5045698709158019,0.5045698709158019,-0.035282962475890745,807.9598939880946,639.7683959757818)" opacity="0.78"></path><path d="M257 150H307C335 150 357 172 357 200H307C279 200 257 178 257 150Z " transform="matrix(-0.052601345158284574,-0.5004683686182766,0.5004683686182766,-0.052601345158284574,235.56664845539495,337.8490245685107)" opacity="0.77"></path><path d="M121 120H171C199 120 221 142 221 170H171C143 170 121 148 121 120Z " transform="matrix(-0.30445428874974734,-0.3264872528880484,0.3264872528880484,-0.30445428874974734,175.72103170743978,244.97519211256963)" opacity="0.69"></path><path d="M233 396H283C311 396 333 418 333 446H283C255 446 233 424 233 396Z " transform="matrix(-0.11893030989445146,-0.4770034193441752,0.4770034193441752,-0.11893030989445146,115.83883815623204,606.0616281399656)" opacity="0.76"></path><path d="M1306 400H1356C1384 400 1406 422 1406 450H1356C1328 450 1306 428 1306 400Z " transform="matrix(-0.35099635629480497,-0.24577029456176339,0.24577029456176339,-0.35099635629480497,1727.4986839470062,907.4379708510432)" opacity="0.66"></path></g><g fill="none" stroke-width="3" stroke="hsl(249, 62%, 59%)"><path d="M6 151H56C84 151 106 173 106 201H56C28 201 6 179 6 151Z " transform="matrix(-0.3836379833724112,-0.0676457272931416,0.0676457272931416,-0.3836379833724112,65.5780790652621,247.30844580196032)" filter="url(#llleaves-blur-2)" opacity="0.60"></path><path d="M728 678H778C806 678 828 700 828 728H778C750 728 728 706 728 678Z " transform="matrix(0.05456145305660955,-0.5191175495325426,0.5191175495325426,0.05456145305660955,370.6115522005803,1068.5167520375217)" opacity="0.80"></path><path d="M1187 332H1237C1265 332 1287 354 1287 382H1237C1209 382 1187 360 1187 332Z " transform="matrix(-0.3179446610637608,-0.30703559019911364,0.30703559019911364,-0.3179446610637608,1520.6858400347885,850.3092690760661)" opacity="0.68"></path><path d="M1180 49H1230C1258 49 1280 71 1280 99H1230C1202 99 1180 77 1180 49Z " transform="matrix(-0.12663655828238618,-0.47261406960552277,0.47261406960552277,-0.12663655828238618,1350.7895255365263,664.6864109276895)" opacity="0.75"></path><path d="M977 180H1027C1055 180 1077 202 1077 230H1027C999 230 977 208 977 180Z " transform="matrix(-0.19377920300715099,-0.4352352159719117,0.4352352159719117,-0.19377920300715099,1136.788022214102,691.7113034196192)" opacity="0.73"></path><path d="M854 711H904C932 711 954 733 954 761H904C876 761 854 739 854 711Z " transform="matrix(-0.06958376954080743,-0.4951142469600236,0.4951142469600236,-0.06958376954080743,602.4996419023125,1234.7969336338956)" opacity="0.77"></path><path d="M598 606H648C676 606 698 628 698 656H648C620 656 598 634 598 606Z " transform="matrix(0.16684005769287713,-0.5134808989027378,0.5134808989027378,0.16684005769287713,215.88119540738802,858.4595460847686)" opacity="0.83"></path><path d="M895 307H945C973 307 995 329 995 357H945C917 357 895 335 895 307Z " transform="matrix(-0.10272201125847613,-0.4832690670728105,0.4832690670728105,-0.10272201125847613,881.6269703710868,822.7929761216199)" opacity="0.76"></path><path d="M393 136H443C471 136 493 158 493 186H443C415 186 393 164 393 136Z " transform="matrix(0.1198806641460181,-0.5192602045416391,0.5192602045416391,0.1198806641460181,306.2919728521101,371.73148368443714)" opacity="0.82"></path><path d="M489 363H539C567 363 589 385 589 413H539C511 413 489 391 489 363Z " transform="matrix(0.17639067121462226,-0.5122757060620463,0.5122757060620463,0.17639067121462226,245.16245426324463,595.6770251361695)" opacity="0.83"></path><path d="M462 28H512C540 28 562 50 562 78H512C484 78 462 56 462 28Z " transform="matrix(0.24194946706981676,-0.49606992180130877,0.49606992180130877,0.24194946706981676,361.83016700478447,294.1644782075698)" opacity="0.85"></path><path d="M258 276H308C336 276 358 298 358 326H308C280 326 258 304 258 276Z " transform="matrix(-0.061102273211435965,-0.49763808057068754,0.49763808057068754,-0.061102273211435965,177.03043789734534,472.664313052414)" opacity="0.77"></path><path d="M665 178H715C743 178 765 200 765 228H715C687 228 665 206 665 178Z " transform="matrix(0.11038118716493057,-0.5193026566561111,0.5193026566561111,0.11038118716493057,530.6590118758841,551.8940185146384)" opacity="0.82"></path><path d="M228 604H278C306 604 328 626 328 654H278C250 654 228 632 228 604Z " transform="matrix(-0.11893030989445146,-0.4770034193441752,0.4770034193441752,-0.11893030989445146,11.02747538317135,836.4141155012907)" opacity="0.76"></path><path d="M169 720H219C247 720 269 742 269 770H219C191 770 169 748 169 720Z " transform="matrix(-0.2204290701404087,-0.41456678594474955,0.41456678594474955,-0.2204290701404087,-41.57828916808893,1000.0097833765046)" opacity="0.72"></path><path d="M358 609H408C436 609 458 631 458 659H408C380 659 358 637 358 609Z " transform="matrix(0.07302570105792656,-0.519604862263451,0.519604862263451,0.07302570105792656,48.77603129333795,799.7004893327626)" opacity="0.81"></path><path d="M1137 190H1187C1215 190 1237 212 1237 240H1187C1159 240 1137 218 1137 190Z " transform="matrix(-0.30421869120070266,-0.3262346054482944,0.3262346054482944,-0.30421869120070266,1477.9671462838508,667.6474952752765)" opacity="0.68"></path><path d="M640 354H690C718 354 740 376 740 404H690C662 404 640 382 640 354Z " transform="matrix(0.12932416228384783,-0.5186908843335529,0.5186908843335529,0.12932416228384783,404.18248286172843,687.8828526845732)" opacity="0.82"></path><path d="M527 135H577C605 135 627 157 627 185H577C549 185 527 163 527 135Z " transform="matrix(0.20459025265570263,-0.5063786446852481,0.5063786446852481,0.20459025265570263,377.93084106801984,419.4460375584757)" opacity="0.84"></path><path d="M951 592H1001C1029 592 1051 614 1051 642H1001C973 642 951 620 951 592Z " transform="matrix(-0.16493132983898204,-0.4531451044932246,0.4531451044932246,-0.16493132983898204,886.5057316965015,1172.3608801083697)" opacity="0.74"></path><path d="M10 389H60C88 389 110 411 110 439H60C32 439 10 417 10 389Z " transform="matrix(-0.3816133609342017,-0.13140001776992127,0.13140001776992127,-0.3816133609342017,28.49719429930468,579.8719324929548)" opacity="0.62"></path><path d="M290 498H340C368 498 390 520 390 548H340C312 548 290 526 290 498Z " transform="matrix(-0.017805474768259034,-0.5098820852864188,0.5098820852864188,-0.017805474768259034,79.38553081641106,705.6721723011818)" opacity="0.78"></path><path d="M108 609H158C186 609 208 631 208 659H158C130 659 108 637 108 609Z " transform="matrix(-0.30886146564571926,-0.31983541043792657,0.31983541043792657,-0.30886146564571926,4.0244613543781895,880.3521640685783)" opacity="0.68"></path><path d="M819 556H869C897 556 919 578 919 606H869C841 606 819 584 819 556Z " transform="matrix(-0.035282962475890745,-0.5045698709158019,0.5045698709158019,-0.035282962475890745,606.5057993894682,1039.9706190243246)" opacity="0.78"></path><path d="M1041 47H1091C1119 47 1141 69 1141 97H1091C1063 97 1041 75 1041 47Z " transform="matrix(-0.026599696667059507,-0.5075524479562664,0.5075524479562664,-0.026599696667059507,1083.4764928109107,627.6548988803149)" opacity="0.78"></path><path d="M1168 704H1218C1246 704 1268 726 1268 754H1218C1190 754 1168 732 1168 704Z " transform="matrix(-0.3179446610637608,-0.30703559019911364,0.30703559019911364,-0.3179446610637608,1381.4276519205068,1334.7510067780022)" opacity="0.68"></path></g></svg>
