<svg xmlns="http://www.w3.org/2000/svg" version="1.1" xmlns:xlink="http://www.w3.org/1999/xlink" xmlns:svgjs="http://svgjs.com/svgjs" width="1440" height="560" preserveAspectRatio="none" viewBox="0 0 1440 560"><g mask="url(&quot;#SvgjsMask1006&quot;)" fill="none"><path d="M225.43 560.02C417.13 551.05 568.4 221.8 914.49 221.65 1260.58 221.5 1423.68 426.62 1603.55 428.85" stroke="rgba(96, 165, 250, 0.5803921568627451)" stroke-width="2"></path><path d="M261.8 608.13C383.59 607.14 497.22 485.77 733.36 485.75 969.5 485.73 969.14 555.75 1204.92 555.75 1440.7 555.75 1557.3 485.94 1676.48 485.75" stroke="rgba(96, 165, 250, 0.5803921568627451)" stroke-width="2"></path><path d="M752.24 605.99C841.95 579.78 772.47 353.41 1000.36 326.34 1228.26 299.27 1357.03 76.26 1496.61 68.74" stroke="rgba(96, 165, 250, 0.5803921568627451)" stroke-width="2"></path><path d="M247.85 638.1C442.1 614.72 561.14 178.86 881.17 178.37 1201.2 177.88 1342.04 446.96 1514.49 452.77" stroke="rgba(96, 165, 250, 0.5803921568627451)" stroke-width="2"></path><path d="M830.11 670.37C920.07 653.47 866.49 443.51 1103.06 426.33 1339.63 409.15 1500.44 196.06 1648.96 191.13" stroke="rgba(96, 165, 250, 0.5803921568627451)" stroke-width="2"></path></g><defs><mask id="SvgjsMask1006"><rect width="1440" height="560" fill="#ffffff"></rect></mask></defs></svg>
